<svg id="Layer_1" data-name="Layer 1" xmlns="http://www.w3.org/2000/svg" viewBox="0 0 1024 1024"><defs><style>.cls-1{fill:#2196f3;}.cls-2{fill:#fff;opacity:0.09;}</style></defs><path class="cls-1" d="M827.32,447.45a193,193,0,0,0-38.21,3.82,157.61,157.61,0,0,0-220.72-112C528.74,230,408.08,173.64,298.87,213.28S133.28,373.6,172.93,482.8a175.35,175.35,0,0,0,5.27,350.62H827.32c106.57,0,193-86.4,193-193S933.89,447.45,827.32,447.45Z"/><path class="cls-2" d="M705.92,341.72a157.58,157.58,0,0,0-137.53-2.5C528.74,230,408.08,173.64,298.87,213.28S133.28,373.6,172.93,482.8A175.3,175.3,0,0,0,51.82,779.27L750.7,375.78A157.13,157.13,0,0,0,705.92,341.72Z"/></svg>