<?xml version="1.0" encoding="utf-8"?>
<!-- Generator: Adobe Illustrator 25.2.1, SVG Export Plug-In . SVG Version: 6.00 Build 0)  -->
<svg version="1.1" id="Layer_1" xmlns="http://www.w3.org/2000/svg" xmlns:xlink="http://www.w3.org/1999/xlink" x="0px" y="0px"
	 viewBox="0 0 16 16" style="enable-background:new 0 0 16 16;" xml:space="preserve">
<style type="text/css">
	.st0{fill:#2196F3;}
</style>
<path class="st0" d="M8,1C4.1,1,1,4.1,1,8c0,0,0,0,0,0c0,3.9,3.1,7,7,7c1.3,0,2.5-0.4,3.6-1c0.9,0.3,2.8,1.4,3.2,0.9
	c0.5-0.5-0.6-2.6-0.8-3.4C14.7,10.4,15,9.2,15,8C15,4.1,11.9,1,8,1L8,1z M8,3.7c2.4,0,4.3,1.9,4.3,4.3c0,0,0,0,0,0
	c0,2.4-1.9,4.3-4.3,4.3S3.7,10.4,3.7,8C3.7,5.6,5.6,3.7,8,3.7C8,3.7,8,3.7,8,3.7z"/>
</svg>
